<?xml version="1.0" encoding="UTF-8"?>
<svg id="Capa_2" data-name="Capa 2" xmlns="http://www.w3.org/2000/svg" viewBox="0 0 1571.79 600">
  <defs>
    <style>
      .cls-1 {
        font-family: HelveticaNeueLTPro-Md, 'Helvetica Neue LT Pro';
        font-size: 418px;
        font-weight: 500;
      }
    </style>
  </defs>
  <g id="Capa_1-2" data-name="Capa 1">
    <g>
      <path d="M301.31,287.4v61.08l99.1-.13c-33.7,40.09-51.69,70.42-103.68,100.26-22.2,12.75-151.38,52.66-198.62-85.19-16.58-48.37-13.39-115.72,7.98-162.17,22.35-48.58,63.62-84.11,127.29-84.11,57.93,0,115.86,32.03,125.4,96.77h83.14c-13.63-111.09-104.27-166.29-208.54-166.29-17.25,0-67.94.66-119.49,31.92C36.48,126.48-3.93,218.81.3,302.51c5.81,114.97,53.73,249.8,227.21,249.87,124.9.05,175.98-97.04,218.74-154v72.07l61.42,71.5.82-254.72-207.18.17Z"/>
      <text class="cls-1" transform="translate(509.7 449.22)"><tspan x="0" y="0">estalt</tspan></text>
    </g>
  </g>
</svg>