<?xml version="1.0" encoding="UTF-8"?>
<svg id="Capa_2" data-name="Capa 2" xmlns="http://www.w3.org/2000/svg" viewBox="0 0 960 950">
  <g id="Capa_1-2" data-name="Capa 1">
    <path d="M568.86,451.28v114.95l187.09-.25c-63.62,75.45-97.59,132.53-195.74,188.71-41.92,23.99-285.79,99.12-374.98-160.33-31.3-91.04-25.29-217.8,15.07-305.22,42.2-91.44,120.12-158.29,240.31-158.29,109.37,0,218.73,60.29,236.74,182.14h156.97C808.58,103.9,637.46,0,440.6,0c-32.57,0-128.26,1.23-225.6,60.08C68.88,148.42-7.41,322.18.57,479.72c10.96,216.38,101.44,470.14,428.95,470.28,235.8.1,332.23-182.64,412.98-289.84v135.64l115.96,134.56,1.54-479.41-391.14.33Z"/>
  </g>
</svg>