<?xml version="1.0" encoding="UTF-8"?>
<svg id="Capa_2" data-name="Capa 2" xmlns="http://www.w3.org/2000/svg" viewBox="0 0 1000 992.65">
  <g id="Capa_1-2" data-name="Capa 1">
    <path d="M592.56,471.54v120.11l194.88-.26c-66.27,78.84-101.66,138.48-203.9,197.18-43.67,25.07-297.7,103.57-390.6-167.53-32.6-95.13-26.34-227.58,15.69-318.93,43.96-95.54,125.12-165.4,250.33-165.4,113.92,0,227.84,62.99,246.61,190.32h163.51C842.28,108.56,664.02,0,458.96,0c-33.92,0-133.61,1.29-235,62.77C71.75,155.09-7.72,336.65.59,501.26c11.42,226.1,105.67,491.25,446.83,491.4,245.63.1,346.07-190.84,430.18-302.85v141.73h121.25s1.15-360.33,1.15-360.33l-407.44.34Z"/>
  </g>
</svg>